<?xml version="1.0" encoding="UTF-8"?>
<svg version="1.1" xmlns="http://www.w3.org/2000/svg" width="260" height="74">
<path d="M0 0 C3.96 0 7.92 0 12 0 C12 16.83 12 33.66 12 51 C7 51 2 51 -3 51 C-4.485 51.495 -4.485 51.495 -6 52 C-11.26527581 52.39737931 -14.50681546 51.79575927 -19 49 C-21.375 46.9375 -21.375 46.9375 -23 45 C-23 44.34 -23 43.68 -23 43 C-23.66 43 -24.32 43 -25 43 C-25.226875 43.763125 -25.45375 44.52625 -25.6875 45.3125 C-27.29892715 48.61208893 -28.72309327 49.43956823 -32 51 C-38.01825818 52.77080436 -43.73943149 52.91694978 -49.4375 50.125 C-51.70699646 48.88709284 -53.15094567 47.84905433 -55 46 C-55.33 47.65 -55.66 49.3 -56 51 C-60.29 51 -64.58 51 -69 51 C-69.99 43.41 -70.98 35.82 -72 28 C-72.95712891 30.36478516 -72.95712891 30.36478516 -73.93359375 32.77734375 C-74.76809649 34.83078309 -75.60273912 36.88416558 -76.4375 38.9375 C-76.85837891 39.97841797 -77.27925781 41.01933594 -77.71289062 42.09179688 C-78.31713867 43.57583008 -78.31713867 43.57583008 -78.93359375 45.08984375 C-79.30540771 46.00628662 -79.67722168 46.92272949 -80.06030273 47.86694336 C-81 50 -81 50 -82 51 C-83.98 51 -85.96 51 -88 51 C-92.455 39.615 -92.455 39.615 -97 28 C-98.32 35.59 -99.64 43.18 -101 51 C-105.29 51 -109.58 51 -114 51 C-112.61568301 41.07798847 -111.08847702 31.19386694 -109.4375 21.3125 C-109.21410887 19.95639402 -108.99080128 18.60027427 -108.76757812 17.24414062 C-108.55423828 15.96345703 -108.34089844 14.68277344 -108.12109375 13.36328125 C-107.9295874 12.21126221 -107.73808105 11.05924316 -107.54077148 9.87231445 C-107 7 -107 7 -106 4 C-101.71 4 -97.42 4 -93 4 C-90.36 10.93 -87.72 17.86 -85 25 C-83.39296664 22.58944995 -82.36704455 20.66601678 -81.30859375 18.0234375 C-81.00373047 17.270625 -80.69886719 16.5178125 -80.38476562 15.7421875 C-80.07216797 14.96101562 -79.75957031 14.17984375 -79.4375 13.375 C-78.81347893 11.81939554 -78.18729007 10.26465834 -77.55859375 8.7109375 C-77.28329834 8.02306152 -77.00800293 7.33518555 -76.72436523 6.62646484 C-76 5 -76 5 -75 4 C-73.00200428 3.90126184 -71.00042842 3.87028201 -69 3.875 C-67.906875 3.87242188 -66.81375 3.86984375 -65.6875 3.8671875 C-63 4 -63 4 -62 5 C-61.63188736 6.77400756 -61.31760683 8.55926114 -61.02734375 10.34765625 C-60.85009766 11.42724609 -60.67285156 12.50683594 -60.49023438 13.61914062 C-60.21663086 15.32360352 -60.21663086 15.32360352 -59.9375 17.0625 C-59.75123047 18.20267578 -59.56496094 19.34285156 -59.37304688 20.51757812 C-58.91175247 23.34448489 -58.45424262 26.17195299 -58 29 C-57.57589844 28.06929687 -57.15179688 27.13859375 -56.71484375 26.1796875 C-54.30852171 21.7178512 -51.72430186 19.76313658 -47 18 C-40.52832764 17.10092101 -34.48504926 17.12033101 -29 21 C-26.125 23.6875 -26.125 23.6875 -24 26 C-23.278125 25.05125 -22.55625 24.1025 -21.8125 23.125 C-19.39104087 20.27305924 -17.7508589 18.8335242 -14 18 C-4.99710983 17.33526012 -4.99710983 17.33526012 -1 20 C-0.67 13.4 -0.34 6.8 0 0 Z M-43 26 C-44.485 27.98 -44.485 27.98 -46 30 C-42.37 30 -38.74 30 -35 30 C-35.33 29.01 -35.66 28.02 -36 27 C-38.31 26.67 -40.62 26.34 -43 26 Z M-10.75 29.5625 C-13.41938594 31.89122295 -13.41938594 31.89122295 -12.9375 35.625 C-12.28663912 39.04139905 -12.28663912 39.04139905 -10 41 C-6.54213985 41.50007794 -6.54213985 41.50007794 -3 41 C-0.62533718 38.93174529 -0.11314353 37.56571765 0.5 34.5 C0.19356726 31.76598585 0.19356726 31.76598585 -2.3125 29.6875 C-5.88697156 27.44306437 -7.08983475 27.48286065 -10.75 29.5625 Z M-46 37 C-45.67 38.65 -45.34 40.3 -45 42 C-40.38492226 43.04214691 -40.38492226 43.04214691 -36 42 C-36 41.34 -36 40.68 -36 40 C-32.37 40 -28.74 40 -25 40 C-25 39.01 -25 38.02 -25 37 C-31.93 37 -38.86 37 -46 37 Z " fill="#A6A8AB" transform="translate(115,1)"/>
<path d="M0 0 C3.96 0 7.92 0 12 0 C12.33 9.24 12.66 18.48 13 28 C17.455 23.545 17.455 23.545 22 19 C25.62213203 18.30757884 27.58431096 18.08084083 31.0625 18.4375 C31.83271484 18.47810547 32.60292969 18.51871094 33.39648438 18.56054688 C35.26713759 18.66511755 37.13447577 18.82651267 39 19 C35.49700717 23.3557354 31.97144513 26.82655153 27.57421875 30.2890625 C25.54860471 32.10310384 25.54860471 32.10310384 26 36 C27.27050356 37.80424335 27.27050356 37.80424335 29.0625 39.41796875 C29.69414062 40.03220703 30.32578125 40.64644531 30.9765625 41.27929688 C31.97816406 42.22385742 31.97816406 42.22385742 33 43.1875 C34.31438267 44.44986559 35.62698754 45.71408579 36.9375 46.98046875 C37.52402344 47.53629639 38.11054688 48.09212402 38.71484375 48.66479492 C40 50 40 50 40 51 C25.07006867 52.22153984 25.07006867 52.22153984 20.16015625 49.32421875 C18.18297456 47.31021803 16.55225786 45.35313293 15 43 C14.34 42.01 13.68 41.02 13 40 C12.67 43.63 12.34 47.26 12 51 C8.04 51 4.08 51 0 51 C0 34.17 0 17.34 0 0 Z " fill="#A6A8AB" transform="translate(220,1)"/>
<path d="M0 0 C2.95665356 1.23193898 4.39185897 2.05483302 6.11279297 4.72949219 C7.24555346 7.62841143 7.22580163 9.96823383 7.1953125 13.078125 C7.18886719 14.23828125 7.18242187 15.3984375 7.17578125 16.59375 C7.15902344 17.8003125 7.14226562 19.006875 7.125 20.25 C7.11597656 21.47203125 7.10695312 22.6940625 7.09765625 23.953125 C7.07409603 26.96883366 7.03822539 29.98444158 7 33 C3.04 33 -0.92 33 -5 33 C-5.495 21.615 -5.495 21.615 -6 10 C-8.31 10.66 -10.62 11.32 -13 12 C-13.33 18.93 -13.66 25.86 -14 33 C-17.96 33 -21.92 33 -26 33 C-26 22.44 -26 11.88 -26 1 C-21.33333333 1 -16.66666667 1 -12 1 C-8.31313877 -0.84343062 -4.03302333 -0.3556682 0 0 Z " fill="#A6A8AB" transform="translate(211,19)"/>
<path d="M0 0 C3.96 0 7.92 0 12 0 C12 17.16 12 34.32 12 52 C8.04 52 4.08 52 0 52 C0 34.84 0 17.68 0 0 Z " fill="#00ADEE" transform="translate(150,0)"/>
<path d="M0 0 C2.49542884 0.9857388 4.97410564 1.98859316 7.4296875 3.0703125 C12.43610805 5.22963127 16.46293562 6.82030583 22 6 C24.12659493 5.12482439 26.11697645 4.12940202 28.1328125 3.0234375 C30.34967077 1.80833945 32.63508021 0.88684492 35 0 C36.03531726 0.90027588 37.05294165 1.82093035 38.0625 2.75 C38.63097656 3.26046875 39.19945312 3.7709375 39.78515625 4.296875 C41 6 41 6 40.94140625 8.0078125 C38.63059753 12.89790564 32.404767 15.42768752 27.625 17.375 C16.69778867 19.25900195 7.19145576 17.97009498 -2.125 11.8125 C-3.42571607 10.88759636 -4.7209557 9.954649 -6 9 C-5.21007484 4.75074742 -3.15346563 2.91089135 0 0 Z " fill="#00AFEE" transform="translate(138,56)"/>
<path d="M0 0 C3.96 0 7.92 0 12 0 C12 10.89 12 21.78 12 33 C8.04 33 4.08 33 0 33 C0 22.11 0 11.22 0 0 Z " fill="#00ADEE" transform="translate(168,19)"/>
<path d="M0 0 C3.96 0 7.92 0 12 0 C12 10.89 12 21.78 12 33 C8.04 33 4.08 33 0 33 C0 22.11 0 11.22 0 0 Z " fill="#00ADEE" transform="translate(131,19)"/>
<path d="M0 0 C3 0.5625 3 0.5625 5.4375 2.125 C7 4.5625 7 4.5625 6.875 8.1875 C6 11.5625 6 11.5625 4 13.5625 C-2.12133891 14.11898536 -2.12133891 14.11898536 -4.875 12.375 C-6.37360729 9.96057715 -6.93182826 8.42571294 -7 5.5625 C-5.04123295 2.0367193 -4.01266543 0.75237477 0 0 Z " fill="#00B0EF" transform="translate(174,0.4375)"/>
<path d="M0 0 C2.4375 1.5625 2.4375 1.5625 4 4 C3.78571429 10.21428571 3.78571429 10.21428571 1 13 C-5.00458716 13.54587156 -5.00458716 13.54587156 -7.9375 11.9375 C-9.6140629 8.88023824 -9.36528977 6.4093712 -9 3 C-6.84532543 -0.71082843 -4.00794956 -0.57256422 0 0 Z " fill="#00ADEE" transform="translate(140,1)"/>
</svg>
